<svg width="23" height="23" viewBox="0 0 23 23" fill="none" xmlns="http://www.w3.org/2000/svg">
<path d="M19.7175 4.38464H18.625V18.6231H19.7175V17.5234H23.0022V16.4309H19.7175V14.2387H23.0022V13.1462H19.7175V9.86152H23.0022V8.76183H19.7175V6.57683H23.0022V5.47714H19.7175V4.38464Z" fill="#BBBBBB"/>
<path d="M4.38672 18.6229V19.7154H5.47922V23.0001H6.57172V19.7154H8.76391V23.0001H9.86359V19.7154H13.1483V23.0001H14.2408V19.7154H16.433V23.0001H17.5255V19.7154H18.6252V18.6229H4.38672Z" fill="#BBBBBB"/>
<path d="M16.4303 5.47705H6.56906V6.57674H5.47656V16.4308H6.56906V15.3383H8.76125V14.2386H10.9534V13.1461H12.0459V12.0536H13.1456V10.9539H14.2381V9.86143H15.3306V7.66924H16.4303V16.4308H17.5228V6.57674H16.4303V5.47705ZM9.86094 10.9539H7.66875V9.86143H9.86094V10.9539ZM13.1456 8.76174H7.66875V7.66924H13.1456V8.76174Z" fill="#BBBBBB"/>
<path d="M16.4316 16.4308H6.57031V17.5233H16.4316V16.4308Z" fill="#BBBBBB"/>
<path d="M15.3308 14.2384H14.2383V15.3381H15.3308V14.2384Z" fill="#BBBBBB"/>
<path d="M13.1466 14.2384H12.0469V15.3381H13.1466V14.2384Z" fill="#BBBBBB"/>
<path d="M18.6252 4.3845V3.292H17.5255V0.00012207H16.433V3.292H14.2408V0.00012207H13.1483V3.292H9.86359V0.00012207H8.76391V3.292H6.57172V0.00012207H5.47922V3.292H4.38672V4.3845H18.6252Z" fill="#BBBBBB"/>
<path d="M4.38438 4.38464H3.28469V5.47714H0V6.57683H3.28469V8.76183H0V9.86152H3.28469V13.1462H0V14.2387H3.28469V16.4309H0V17.5234H3.28469V18.6231H4.38438V4.38464Z" fill="#BBBBBB"/>
</svg>
