<svg width="51" height="28" viewBox="0 0 51 28" fill="none" xmlns="http://www.w3.org/2000/svg">
<path d="M9.10605 6.77939C8.74374 6.77939 6.79872 6.87636 5.44483 6.87636L5.31135 10.697C5.27321 11.8218 5.1016 11.9576 4.30071 12.0739C3.70957 12.1515 2.29848 12.3261 1.72641 12.3261C1.11621 12.3261 0.849248 12.0933 0.83018 11.24C0.792042 8.87394 0.753906 2.14424 0.753906 1.9503C0.753906 1 0.982728 0.709092 1.85989 0.689698C3.74771 0.631516 8.4005 0.45697 8.85815 0.45697C9.18232 0.45697 9.37301 0.631516 9.37301 1.25212C9.37301 1.93091 9.16325 2.24121 8.78187 2.2994C8.41957 2.35758 6.6271 2.41576 5.61645 2.41576L5.54017 5.07273C6.72244 5.07273 8.80095 4.82061 9.27767 4.82061C9.63997 4.82061 9.79252 5.07273 9.79252 5.61576C9.79252 6.23636 9.58276 6.74061 9.14418 6.74061L9.10605 6.77939Z" fill="white"/>
<path d="M14.5991 10.9297C14.5991 11.6473 14.3322 11.8218 13.722 11.9576C13.0545 12.1127 12.3109 12.2873 11.7388 12.2873C11.2239 12.2873 10.7282 12.1127 10.7282 11.143C10.7282 8.15638 10.6328 3.13335 10.6328 1.93093C10.6328 1.0388 10.957 0.689714 11.7197 0.437593C12.5778 0.146683 13.3215 0.0109253 13.9317 0.0109253C14.6563 0.0109253 14.7326 0.612137 14.7326 1.29093C14.7326 2.08608 14.6182 9.10668 14.5991 10.9297Z" fill="white"/>
<path d="M25.332 10.6388C25.332 11.3758 25.1604 11.8994 24.512 12.0158C23.7684 12.1515 23.0819 12.2679 22.3763 12.2679C21.8805 12.2679 21.5373 12.0546 21.5373 11.1818C20.7173 11.8412 19.6686 12.2291 18.3528 12.2291C16.7892 12.2291 15.9883 10.9491 15.9883 9.02912V5.94548C15.9883 5.36366 16.2552 5.11154 16.751 5.01457C17.2468 4.937 18.3147 4.78185 18.8867 4.78185C19.6876 4.78185 19.9737 5.03397 19.9737 5.98427C19.9737 6.64366 19.8974 8.15639 19.8974 8.91276C19.8974 9.78548 20.2597 10.057 20.7746 10.057C21.0225 10.057 21.2894 9.97942 21.5182 9.82427C21.5182 8.85457 21.461 7.38063 21.461 6.17821C21.461 5.48003 21.728 5.22791 22.4145 5.05336C22.9484 4.9176 23.959 4.76245 24.4167 4.76245C25.3701 4.76245 25.4655 4.937 25.4655 6.02306C25.4655 6.8376 25.3701 9.99882 25.3701 10.6L25.332 10.6388Z" fill="white"/>
<path d="M32.6948 1.54303C32.5613 1.54303 32.4469 1.54303 32.2562 1.54303C31.7223 1.54303 31.3409 1.79515 31.2646 3.09455C31.2265 3.61818 31.2646 4.47152 31.2646 5.05333C31.913 4.99515 32.1037 4.97576 32.3325 4.97576C32.8283 4.97576 32.9999 5.1697 32.9999 5.73212C32.9999 6.21697 32.7711 6.4497 32.3134 6.48849C32.1418 6.48849 31.9702 6.52727 31.2837 6.56606C31.2265 8.48606 31.2074 10.2121 31.2074 11.0848C31.2074 11.8024 30.9405 11.977 30.3303 12.1127C29.6628 12.2679 28.9382 12.4424 28.3662 12.4424C27.8513 12.4424 27.3555 12.2679 27.3555 11.2982C27.3555 9.72727 27.3174 8.38909 27.2983 6.81818C27.0504 6.81818 27.0314 6.81818 26.8788 6.81818C26.4402 6.81818 26.2305 6.62424 26.2305 6.21697C26.2305 5.63515 26.4402 5.34424 26.8979 5.32485C27.0504 5.32485 27.0504 5.32485 27.2602 5.28606V4.31636C27.2602 1.71758 28.4425 0.0690918 31.6841 0.0690918C32.3134 0.0690918 32.6185 0.166061 32.8664 0.263031C33.1715 0.360001 33.2478 0.495759 33.2478 0.94182C33.2478 1.3297 33.019 1.54303 32.7139 1.54303H32.6948Z" fill="white"/>
<path d="M40.0346 1.54303C39.9012 1.54303 39.7867 1.54303 39.5961 1.54303C39.0621 1.54303 38.6808 1.79515 38.6045 3.09455C38.5663 3.61818 38.6045 4.47152 38.6045 5.05333C39.2528 4.99515 39.4435 4.97576 39.6723 4.97576C40.1681 4.97576 40.3397 5.1697 40.3397 5.73212C40.3397 6.21697 40.1109 6.4497 39.6533 6.48849C39.4816 6.48849 39.31 6.52727 38.6235 6.56606C38.5663 8.48606 38.5473 10.2121 38.5473 11.0848C38.5473 11.8024 38.2803 11.977 37.6701 12.1127C37.0027 12.2679 36.2781 12.4424 35.706 12.4424C35.1912 12.4424 34.6954 12.2679 34.6954 11.2982C34.6954 9.72727 34.6572 8.38909 34.6382 6.81818C34.3903 6.81818 34.3712 6.81818 34.2187 6.81818C33.7801 6.81818 33.5703 6.62424 33.5703 6.21697C33.5703 5.63515 33.7801 5.34424 34.2377 5.32485C34.3903 5.32485 34.3903 5.32485 34.6 5.28606V4.31636C34.6 1.71758 35.7823 0.0690918 39.024 0.0690918C39.6533 0.0690918 39.9584 0.166061 40.2063 0.263031C40.5114 0.360001 40.5876 0.495759 40.5876 0.94182C40.5876 1.3297 40.3588 1.54303 40.0537 1.54303H40.0346Z" fill="white"/>
<path d="M50.5604 11.0655C50.446 14.1879 49.0349 15.6231 45.6979 15.6231C45.2784 15.6231 44.8588 15.6231 44.4775 15.4097C44.2105 15.2546 44.1724 15.0413 44.1724 14.6728C44.1724 14.3043 44.4393 14.1491 44.7444 14.1491C46.0983 14.1491 46.8801 13.7806 46.8801 11.5503C45.9839 12.2291 45.1258 12.3649 43.9054 12.3649C42.0367 12.3649 41.5409 11.1625 41.4646 9.53337C41.4646 9.1261 41.293 6.83762 41.293 5.96489C41.293 5.38307 41.5599 5.13095 42.0557 5.03398C42.5515 4.95641 43.524 4.80125 44.0961 4.80125C44.897 4.80125 45.183 4.99519 45.183 6.00368C45.183 6.93459 45.0877 8.62186 45.1067 9.35883C45.1449 10.2316 45.6025 10.4837 46.1174 10.4837C46.4034 10.4837 46.6704 10.3479 46.8801 10.2316C46.8801 9.26186 46.8229 6.99277 46.8229 6.13944C46.8229 5.34428 47.0327 5.18913 47.7001 5.01459C48.234 4.87883 48.9968 4.78186 49.6451 4.78186C50.5413 4.78186 50.6748 5.09216 50.6748 6.54671C50.6748 7.67156 50.5985 9.70792 50.5604 11.0849V11.0655Z" fill="white"/>
<path d="M8.47631 27.2013C6.98894 27.3176 3.11798 27.4534 1.61154 27.4534C1.19203 27.4534 0.810648 27.3758 0.810648 26.5419C0.810648 24.3891 0.734375 17.7176 0.734375 17.097C0.734375 16.4182 1.13482 15.914 1.63061 15.8558C2.37429 15.7782 3.99514 15.5843 4.60534 15.5843C5.25368 15.5843 5.61599 15.7394 5.61599 16.5928C5.61599 17.1552 5.38716 23.3419 5.34903 25.5916C7.12243 25.514 8.57165 25.1649 8.83861 25.1649C9.12465 25.1649 9.39161 25.2037 9.39161 25.9794C9.39161 26.7552 9.14372 27.1237 8.47631 27.1819V27.2013Z" fill="white"/>
<path d="M19.649 26.3091C19.649 27.0267 19.4011 27.2012 18.7909 27.337C18.1235 27.4922 17.5896 27.6085 17.0366 27.6085C16.5217 27.6085 16.2357 27.3176 16.1022 26.8522C15.5874 27.1043 14.9772 27.434 13.7377 27.434C11.5448 27.434 9.84766 26.1928 9.84766 23.8849C9.84766 21.3443 12.3647 19.9091 14.9009 19.9091C16.4455 19.9091 17.1129 20.2776 17.3989 20.4522C17.7612 20.2194 18.5049 19.8315 19.077 19.8315C19.5727 19.8315 19.7444 20.0643 19.7444 20.6267C19.7444 21.3055 19.649 24.4667 19.649 26.3091ZM15.7781 21.2473C15.5683 21.1697 15.4539 21.1697 15.2632 21.1697C14.5386 21.1697 13.9856 21.577 13.9856 23.3806C13.9856 25.3976 14.5195 25.8437 15.0916 25.8437C15.4539 25.8437 15.6446 25.7661 15.8353 25.6303C15.8353 24.1952 15.7971 22.5661 15.7971 21.2279L15.7781 21.2473Z" fill="white"/>
<path d="M25.1604 27.4727C23.7684 27.4727 22.6434 27.3564 22.0713 27.2594C21.5564 27.1818 21.0606 27.0849 21.0606 26.1152C21.0606 24.1564 20.9844 18.8424 20.9844 17.0388C20.9844 16.1467 21.2323 15.817 21.995 15.5649C22.9294 15.2546 23.6731 15.08 24.2642 15.08C24.9888 15.08 25.0651 15.6812 25.0651 16.36C25.0651 16.903 25.0651 18.377 24.9888 20.297C25.5418 20.0643 26.0757 19.9091 27.2008 19.9091C28.917 19.9091 30.9574 21.0146 30.9574 23.4194C30.9574 25.8243 28.9742 27.4921 25.1414 27.4921L25.1604 27.4727ZM25.58 21.5382C25.313 21.5382 25.1795 21.6158 24.9888 21.674C24.9316 23.0509 24.9125 24.7382 24.8744 26.1152C26.152 26.1152 26.7813 25.6497 26.7813 23.8461C26.7813 21.8873 26.3236 21.5382 25.58 21.5382Z" fill="white"/>
<path d="M35.1327 27.4146C33.3593 27.4146 32.3106 27.2206 32.1008 27.143C31.8148 27.0461 31.5859 26.8715 31.5859 26.6C31.5859 26.0764 31.8529 25.8824 32.1389 25.8824C32.3678 25.8824 32.9017 25.9794 33.1114 25.9794C33.7979 25.9794 34.2174 25.8436 34.2174 25.3006C34.2174 24.8352 33.6454 24.5443 33.0733 24.1758C32.3106 23.6521 31.8529 23.2061 31.8529 22.4303C31.8529 20.84 33.6835 19.9673 36.1243 19.9673C37.688 19.9673 38.3935 20.103 38.5651 20.1612C39.0037 20.2776 39.0991 20.4521 39.0991 20.84C39.0991 21.2279 38.8702 21.4606 38.5461 21.4606C38.3935 21.4606 38.0693 21.4024 37.8786 21.4024C37.2112 21.4024 36.6201 21.4994 36.6201 22.12C36.6201 22.5273 37.2875 22.8182 37.974 23.2255C38.6223 23.5939 39.2516 24.1564 39.2516 25.1067C39.2516 26.6194 37.4401 27.4339 35.0946 27.4339L35.1327 27.4146Z" fill="white"/>
</svg>
