<svg width="120" height="60" viewBox="0 0 120 60" fill="none" xmlns="http://www.w3.org/2000/svg">
<path d="M40.1004 36.6909C39.3568 36.6909 38.7465 36.0703 38.7465 35.3139V33.2969C38.7465 31.1442 40.4627 29.3794 42.5984 29.3794H45.2299C47.3656 29.3794 49.1009 27.6727 49.1963 25.52C49.2344 24.4533 48.853 23.4254 48.1284 22.6303C47.4038 21.8351 46.4122 21.3697 45.3825 21.3503C44.6388 21.3309 43.9142 21.5054 43.2849 21.8739C42.8845 22.1066 42.3696 22.1066 41.9692 21.8739C41.5497 21.6412 41.3018 21.2145 41.2636 20.7297C41.0729 16.3079 37.488 12.8363 33.1403 12.8363C29.8414 12.8363 26.8858 14.8533 25.6081 17.9563C25.4556 18.3054 25.1696 18.5963 24.8263 18.7321C24.464 18.8679 24.0636 18.8291 23.7394 18.6545C23.4152 18.48 23.0529 18.383 22.6906 18.383C21.8134 18.383 21.0126 18.9066 20.6503 19.7212C20.4977 20.0703 20.2117 20.3224 19.8684 20.4388C19.5252 20.5551 19.1438 20.5357 18.8196 20.3806C18.1713 20.0509 17.4658 19.8763 16.7221 19.8763C15.4445 19.8763 14.2622 20.3806 13.366 21.3115C12.4697 22.2424 12.0121 23.4642 12.0502 24.7636C12.1265 27.3236 14.2813 29.3988 16.8556 29.3988H18.648C20.6884 29.3988 22.3474 31.0085 22.4809 33.0448C22.4809 33.103 22.4809 33.1418 22.4809 33.2V33.2969C22.4809 34.0533 21.8707 34.6739 21.127 34.6739C20.3833 34.6739 19.7731 34.0533 19.7731 33.2969C19.7731 32.6569 19.2582 32.1333 18.629 32.1333H16.8365C12.813 32.1333 9.4378 28.8557 9.32338 24.8412C9.26618 22.7854 10.0099 20.8654 11.421 19.3915C12.832 17.9175 14.7008 17.1224 16.7221 17.1224C17.4467 17.1224 18.1904 17.2388 18.8769 17.4521C19.8112 16.3272 21.1842 15.6291 22.6715 15.6291C22.9957 15.6291 23.339 15.6679 23.6631 15.726C25.57 12.2545 29.1549 10.0824 33.1213 10.0824C38.308 10.0824 42.6557 13.7672 43.7235 18.7515C44.2765 18.6157 44.8676 18.5575 45.4588 18.5769C47.2322 18.6351 48.8721 19.4109 50.1116 20.7297C51.332 22.0679 51.9803 23.7939 51.904 25.5975C51.7705 29.2436 48.8339 32.1139 45.249 32.1139H42.6175C41.9882 32.1139 41.4734 32.6376 41.4734 33.2776V35.2945C41.4734 36.0509 40.8632 36.6715 40.1195 36.6715L40.1004 36.6909Z" fill="#61EDE2"/>
<path d="M21.1076 35.5273C22.061 35.5273 22.8238 36.303 22.8238 37.2727C22.8238 38.2424 22.061 39.0182 21.1076 39.0182C20.1541 39.0182 19.3914 38.2424 19.3914 37.2727C19.3914 36.303 20.1541 35.5273 21.1076 35.5273ZM21.1076 32.7927C18.6667 32.7927 16.6836 34.8097 16.6836 37.2921C16.6836 39.7745 18.6667 41.7915 21.1076 41.7915C23.5484 41.7915 25.5315 39.7745 25.5315 37.2921C25.5315 34.8097 23.5484 32.7927 21.1076 32.7927Z" fill="#61EDE2"/>
<path d="M40.0997 37.6412C41.0532 37.6412 41.8159 38.4169 41.8159 39.3866C41.8159 40.3563 41.0532 41.1321 40.0997 41.1321C39.1463 41.1321 38.3836 40.3563 38.3836 39.3866C38.3836 38.4169 39.1463 37.6412 40.0997 37.6412ZM40.0997 34.9066C37.6589 34.9066 35.6758 36.9236 35.6758 39.406C35.6758 41.8884 37.6589 43.9054 40.0997 43.9054C42.5406 43.9054 44.5237 41.8884 44.5237 39.406C44.5237 36.9236 42.5406 34.9066 40.0997 34.9066Z" fill="#61EDE2"/>
<path d="M30.6036 43.0715C31.5571 43.0715 32.3198 43.8473 32.3198 44.817C32.3198 45.7867 31.5571 46.5624 30.6036 46.5624C29.6502 46.5624 28.8875 45.7867 28.8875 44.817C28.8875 43.8473 29.6502 43.0715 30.6036 43.0715ZM30.6036 40.3176C28.1628 40.3176 26.1797 42.3345 26.1797 44.817C26.1797 47.2994 28.1628 49.3164 30.6036 49.3164C33.0445 49.3164 35.0276 47.2994 35.0276 44.817C35.0276 42.3345 33.0445 40.3176 30.6036 40.3176Z" fill="#61EDE2"/>
<path d="M30.6039 42.7224C29.8602 42.7224 29.25 42.1018 29.25 41.3455V27.8085C29.25 27.0521 29.8602 26.4315 30.6039 26.4315C31.3476 26.4315 31.9578 27.0521 31.9578 27.8085V41.3455C31.9578 42.1018 31.3476 42.7224 30.6039 42.7224Z" fill="#61EDE2"/>
<path d="M32.4536 29.9612C31.3857 29.9612 30.3941 29.5345 29.6504 28.7781C29.1165 28.2351 29.1165 27.3624 29.6504 26.8387C30.1844 26.2957 31.0425 26.2957 31.5573 26.8387C31.7861 27.0715 32.1103 27.2072 32.4536 27.2072C32.7968 27.2072 33.1019 27.0715 33.3498 26.8387C33.8456 26.3345 33.8456 25.52 33.3498 25.0351C32.8159 24.4921 32.8159 23.6193 33.3498 23.0957C33.8837 22.5721 34.7418 22.5527 35.2567 23.0957C36.8012 24.6666 36.8012 27.2266 35.2567 28.7975C34.513 29.5539 33.5214 29.9806 32.4536 29.9806V29.9612Z" fill="#61EDE2"/>
<path d="M69.106 22.6885C68.7437 22.6885 66.7987 22.7854 65.4448 22.7854L65.3113 26.606C65.2732 27.7309 65.1016 27.8666 64.3007 27.983C63.7096 28.0606 62.2985 28.2351 61.7264 28.2351C61.1162 28.2351 60.8492 28.0024 60.8302 27.1491C60.792 24.783 60.7539 18.0533 60.7539 17.8594C60.7539 16.9091 60.9827 16.6181 61.8599 16.5988C63.7477 16.5406 68.4005 16.366 68.8581 16.366C69.1823 16.366 69.373 16.5406 69.373 17.1612C69.373 17.84 69.1632 18.1503 68.7819 18.2085C68.4196 18.2666 66.6271 18.3248 65.6165 18.3248L65.5402 20.9818C66.7224 20.9818 68.8009 20.7297 69.2777 20.7297C69.64 20.7297 69.7925 20.9818 69.7925 21.5248C69.7925 22.1454 69.5828 22.6497 69.1442 22.6497L69.106 22.6885Z" fill="white"/>
<path d="M74.5991 26.8388C74.5991 27.5563 74.3322 27.7309 73.722 27.8667C73.0545 28.0218 72.3109 28.1963 71.7388 28.1963C71.2239 28.1963 70.7282 28.0218 70.7282 27.0521C70.7282 24.0654 70.6328 19.0424 70.6328 17.84C70.6328 16.9479 70.957 16.5988 71.7197 16.3467C72.5778 16.0557 73.3215 15.92 73.9317 15.92C74.6563 15.92 74.7326 16.5212 74.7326 17.2C74.7326 17.9951 74.6182 25.0157 74.5991 26.8388Z" fill="white"/>
<path d="M85.332 26.5479C85.332 27.2848 85.1604 27.8085 84.512 27.9248C83.7684 28.0606 83.0819 28.177 82.3763 28.177C81.8805 28.177 81.5373 27.9636 81.5373 27.0909C80.7173 27.7503 79.6686 28.1382 78.3528 28.1382C76.7892 28.1382 75.9883 26.8582 75.9883 24.9382V21.8545C75.9883 21.2727 76.2552 21.0206 76.751 20.9236C77.2468 20.8461 78.3147 20.6909 78.8867 20.6909C79.6876 20.6909 79.9737 20.943 79.9737 21.8933C79.9737 22.5527 79.8974 24.0654 79.8974 24.8218C79.8974 25.6945 80.2597 25.9661 80.7746 25.9661C81.0225 25.9661 81.2894 25.8885 81.5182 25.7333C81.5182 24.7636 81.461 23.2897 81.461 22.0873C81.461 21.3891 81.728 21.137 82.4145 20.9624C82.9484 20.8267 83.959 20.6715 84.4167 20.6715C85.3701 20.6715 85.4655 20.8461 85.4655 21.9321C85.4655 22.7467 85.3701 25.9079 85.3701 26.5091L85.332 26.5479Z" fill="white"/>
<path d="M92.6948 17.4521C92.5613 17.4521 92.4469 17.4521 92.2562 17.4521C91.7223 17.4521 91.3409 17.7042 91.2646 19.0036C91.2265 19.5272 91.2646 20.3806 91.2646 20.9624C91.913 20.9042 92.1037 20.8848 92.3325 20.8848C92.8283 20.8848 92.9999 21.0788 92.9999 21.6412C92.9999 22.126 92.7711 22.3588 92.3134 22.3975C92.1418 22.3975 91.9702 22.4363 91.2837 22.4751C91.2265 24.3951 91.2074 26.1212 91.2074 26.9939C91.2074 27.7115 90.9405 27.886 90.3303 28.0218C89.6628 28.1769 88.9382 28.3515 88.3662 28.3515C87.8513 28.3515 87.3555 28.1769 87.3555 27.2072C87.3555 25.6363 87.3174 24.2982 87.2983 22.7272C87.0504 22.7272 87.0314 22.7272 86.8788 22.7272C86.4402 22.7272 86.2305 22.5333 86.2305 22.126C86.2305 21.5442 86.4402 21.2533 86.8979 21.2339C87.0504 21.2339 87.0504 21.2339 87.2602 21.1951V20.2254C87.2602 17.6266 88.4425 15.9781 91.6841 15.9781C92.3134 15.9781 92.6185 16.0751 92.8664 16.1721C93.1715 16.2691 93.2478 16.4048 93.2478 16.8509C93.2478 17.2388 93.019 17.4521 92.7139 17.4521H92.6948Z" fill="white"/>
<path d="M100.035 17.4521C99.9012 17.4521 99.7867 17.4521 99.5961 17.4521C99.0621 17.4521 98.6808 17.7042 98.6045 19.0036C98.5663 19.5272 98.6045 20.3806 98.6045 20.9624C99.2528 20.9042 99.4435 20.8848 99.6723 20.8848C100.168 20.8848 100.34 21.0788 100.34 21.6412C100.34 22.126 100.111 22.3588 99.6533 22.3975C99.4816 22.3975 99.31 22.4363 98.6235 22.4751C98.5663 24.3951 98.5473 26.1212 98.5473 26.9939C98.5473 27.7115 98.2803 27.886 97.6701 28.0218C97.0027 28.1769 96.2781 28.3515 95.706 28.3515C95.1912 28.3515 94.6954 28.1769 94.6954 27.2072C94.6954 25.6363 94.6572 24.2982 94.6382 22.7272C94.3903 22.7272 94.3712 22.7272 94.2187 22.7272C93.7801 22.7272 93.5703 22.5333 93.5703 22.126C93.5703 21.5442 93.7801 21.2533 94.2377 21.2339C94.3903 21.2339 94.3903 21.2339 94.6 21.1951V20.2254C94.6 17.6266 95.7823 15.9781 99.024 15.9781C99.6533 15.9781 99.9584 16.0751 100.206 16.1721C100.511 16.2691 100.588 16.4048 100.588 16.8509C100.588 17.2388 100.359 17.4521 100.054 17.4521H100.035Z" fill="white"/>
<path d="M110.56 26.9746C110.446 30.097 109.035 31.5321 105.698 31.5321C105.278 31.5321 104.859 31.5321 104.477 31.3188C104.211 31.1636 104.172 30.9503 104.172 30.5818C104.172 30.2133 104.439 30.0582 104.744 30.0582C106.098 30.0582 106.88 29.6897 106.88 27.4594C105.984 28.1382 105.126 28.2739 103.905 28.2739C102.037 28.2739 101.541 27.0715 101.465 25.4424C101.465 25.0352 101.293 22.7467 101.293 21.8739C101.293 21.2921 101.56 21.04 102.056 20.943C102.552 20.8655 103.524 20.7103 104.096 20.7103C104.897 20.7103 105.183 20.9043 105.183 21.9127C105.183 22.8436 105.088 24.5309 105.107 25.2679C105.145 26.1406 105.603 26.3927 106.117 26.3927C106.403 26.3927 106.67 26.257 106.88 26.1406C106.88 25.1709 106.823 22.9018 106.823 22.0485C106.823 21.2533 107.033 21.0982 107.7 20.9236C108.234 20.7879 108.997 20.6909 109.645 20.6909C110.541 20.6909 110.675 21.0012 110.675 22.4558C110.675 23.5806 110.599 25.617 110.56 26.9939V26.9746Z" fill="white"/>
<path d="M68.4763 43.1103C66.9889 43.2267 63.118 43.3624 61.6115 43.3624C61.192 43.3624 60.8106 43.2849 60.8106 42.4509C60.8106 40.2982 60.7344 33.6267 60.7344 33.0061C60.7344 32.3273 61.1348 31.823 61.6306 31.7649C62.3743 31.6873 63.9951 31.4933 64.6053 31.4933C65.2537 31.4933 65.616 31.6485 65.616 32.5018C65.616 33.0643 65.3872 39.2509 65.349 41.5006C67.1224 41.423 68.5717 41.074 68.8386 41.074C69.1246 41.074 69.3916 41.1127 69.3916 41.8885C69.3916 42.6643 69.1437 43.0327 68.4763 43.0909V43.1103Z" fill="white"/>
<path d="M79.649 42.2182C79.649 42.9358 79.4011 43.1103 78.7909 43.2461C78.1235 43.4012 77.5896 43.5176 77.0366 43.5176C76.5217 43.5176 76.2357 43.2267 76.1022 42.7612C75.5874 43.0133 74.9772 43.343 73.7377 43.343C71.5448 43.343 69.8477 42.1018 69.8477 39.7939C69.8477 37.2533 72.3647 35.8182 74.9009 35.8182C76.4455 35.8182 77.1129 36.1867 77.3989 36.3612C77.7612 36.1285 78.5049 35.7406 79.077 35.7406C79.5727 35.7406 79.7444 35.9733 79.7444 36.5358C79.7444 37.2145 79.649 40.3758 79.649 42.2182ZM75.7781 37.1564C75.5683 37.0788 75.4539 37.0788 75.2632 37.0788C74.5386 37.0788 73.9856 37.4861 73.9856 39.2897C73.9856 41.3067 74.5195 41.7527 75.0916 41.7527C75.4539 41.7527 75.6446 41.6751 75.8353 41.5394C75.8353 40.1042 75.7971 38.4751 75.7971 37.137L75.7781 37.1564Z" fill="white"/>
<path d="M85.1604 43.3818C83.7684 43.3818 82.6434 43.2654 82.0713 43.1685C81.5564 43.0909 81.0606 42.9939 81.0606 42.0242C81.0606 40.0654 80.9844 34.7515 80.9844 32.9479C80.9844 32.0557 81.2323 31.726 81.995 31.4739C82.9294 31.1636 83.6731 30.9891 84.2642 30.9891C84.9888 30.9891 85.0651 31.5903 85.0651 32.2691C85.0651 32.8121 85.0651 34.286 84.9888 36.206C85.5418 35.9733 86.0757 35.8182 87.2008 35.8182C88.917 35.8182 90.9574 36.9236 90.9574 39.3285C90.9574 41.7333 88.9742 43.4012 85.1414 43.4012L85.1604 43.3818ZM85.58 37.4473C85.313 37.4473 85.1795 37.5248 84.9888 37.583C84.9316 38.96 84.9125 40.6473 84.8744 42.0242C86.152 42.0242 86.7813 41.5588 86.7813 39.7551C86.7813 37.7963 86.3236 37.4473 85.58 37.4473Z" fill="white"/>
<path d="M95.1327 43.3236C93.3593 43.3236 92.3106 43.1297 92.1008 43.0521C91.8148 42.9551 91.5859 42.7806 91.5859 42.5091C91.5859 41.9854 91.8529 41.7915 92.1389 41.7915C92.3678 41.7915 92.9017 41.8885 93.1114 41.8885C93.7979 41.8885 94.2174 41.7527 94.2174 41.2097C94.2174 40.7442 93.6454 40.4533 93.0733 40.0848C92.3106 39.5612 91.8529 39.1151 91.8529 38.3394C91.8529 36.7491 93.6835 35.8763 96.1243 35.8763C97.688 35.8763 98.3935 36.0121 98.5651 36.0703C99.0037 36.1866 99.0991 36.3612 99.0991 36.7491C99.0991 37.1369 98.8702 37.3697 98.5461 37.3697C98.3935 37.3697 98.0693 37.3115 97.8786 37.3115C97.2112 37.3115 96.6201 37.4085 96.6201 38.0291C96.6201 38.4363 97.2875 38.7272 97.974 39.1345C98.6223 39.503 99.2516 40.0654 99.2516 41.0157C99.2516 42.5285 97.4401 43.343 95.0946 43.343L95.1327 43.3236Z" fill="white"/>
</svg>
