<svg width="156" height="47" viewBox="0 0 156 47" fill="none" xmlns="http://www.w3.org/2000/svg">
<g filter="url(#filter0_d_654_5278)">
<path d="M139.55 9.36328H137.711V11.8149H139.55V9.36328Z" fill="white"/>
<path d="M127.292 9.36328H125.453V11.8149H127.292V9.36328Z" fill="white"/>
<path d="M139.894 13.7711H137.773V11.8149H127.213V13.7711H125.106V15.7401H123V21.6214H125.106V17.6962H127.213V21.6214H129.333V19.6524H135.667V21.6214H137.773V17.6962H139.894V21.6214H142V15.7401H139.894V13.7711ZM131.44 15.7401H129.333V13.7711H131.44V15.7401ZM135.667 15.7401H133.56V13.7711H135.667V15.7401Z" fill="white"/>
</g>
<g filter="url(#filter1_d_654_5278)">
<path d="M10.232 33.4428C9.12267 33.4428 8.09867 33.1548 7.16 32.5788C6.24267 32.0028 5.496 31.1282 4.92 29.9548C4.344 28.7815 4.056 27.3202 4.056 25.5708C4.056 23.8428 4.33333 22.4135 4.888 21.2828C5.44267 20.1308 6.18933 19.2668 7.128 18.6908C8.06667 18.1148 9.112 17.8268 10.264 17.8268C11.0107 17.8268 11.704 17.9655 12.344 18.2428C12.984 18.5202 13.4853 18.9682 13.848 19.5868V11.6188H17.72V11.9068C17.592 12.0348 17.5067 12.1842 17.464 12.3548C17.4427 12.5042 17.432 12.7495 17.432 13.0908L17.4 31.1068C17.4 31.4482 17.4213 31.7788 17.464 32.0988C17.5067 32.4188 17.6027 32.7495 17.752 33.0908H14.2C14.0293 32.7495 13.9333 32.4828 13.912 32.2908C13.8907 32.0775 13.88 31.8002 13.88 31.4588C13.4747 32.1415 12.952 32.6428 12.312 32.9628C11.672 33.2828 10.9787 33.4428 10.232 33.4428ZM10.84 30.5308C12.8027 30.5308 13.784 28.8882 13.784 25.6028C13.784 22.2962 12.7707 20.6428 10.744 20.6428C9.72 20.6428 8.94133 21.0802 8.408 21.9548C7.87467 22.8295 7.608 24.0135 7.608 25.5068C7.608 27.0855 7.91733 28.3228 8.536 29.2188C9.176 30.0935 9.944 30.5308 10.84 30.5308ZM26.072 33.4428C24.6427 33.4428 23.3627 33.1442 22.232 32.5468C21.1227 31.9495 20.248 31.0748 19.608 29.9228C18.968 28.7708 18.648 27.3842 18.648 25.7628C18.648 24.0988 18.9573 22.6802 19.576 21.5068C20.216 20.3335 21.0587 19.4375 22.104 18.8188C23.1707 18.1788 24.3547 17.8588 25.656 17.8588C26.808 17.8588 27.864 18.1255 28.824 18.6588C29.8053 19.1922 30.584 20.0028 31.16 21.0908C31.7573 22.1575 32.056 23.4908 32.056 25.0908C32.056 25.3042 32.0453 25.5602 32.024 25.8588C32.024 26.1575 32.0133 26.4135 31.992 26.6268H22.136C22.1787 27.5655 22.4027 28.3335 22.808 28.9308C23.2133 29.5068 23.7147 29.9335 24.312 30.2108C24.9093 30.4882 25.5493 30.6268 26.232 30.6268C26.8933 30.6268 27.5227 30.5202 28.12 30.3068C28.7173 30.0935 29.272 29.7308 29.784 29.2188L31.64 31.0108C30.9147 31.8642 30.0827 32.4828 29.144 32.8668C28.2053 33.2508 27.1813 33.4428 26.072 33.4428ZM22.2 23.9068H28.536C28.536 22.8615 28.2693 22.0615 27.736 21.5068C27.2027 20.9522 26.456 20.6748 25.496 20.6748C24.664 20.6748 23.9387 20.9415 23.32 21.4748C22.7013 21.9868 22.328 22.7975 22.2 23.9068ZM40.728 33.4748C39.9387 33.4748 39.192 33.3042 38.488 32.9628C37.784 32.6215 37.1867 32.1202 36.696 31.4588L36.088 33.0908H33.336V11.6188H37.272V11.9068C37.144 12.0348 37.0587 12.1842 37.016 12.3548C36.9947 12.5042 36.984 12.7495 36.984 13.0908V19.8748C37.432 19.2562 37.9973 18.7655 38.68 18.4028C39.384 18.0188 40.12 17.8375 40.888 17.8588C42.7013 17.8802 44.152 18.5202 45.24 19.7788C46.3493 21.0162 46.904 22.8935 46.904 25.4108C46.904 27.2242 46.616 28.7282 46.04 29.9228C45.464 31.1175 44.7067 32.0135 43.768 32.6108C42.8293 33.1868 41.816 33.4748 40.728 33.4748ZM39.992 30.6588C40.888 30.6588 41.656 30.2962 42.296 29.5708C42.9573 28.8242 43.288 27.5442 43.288 25.7308C43.288 24.1095 43 22.8508 42.424 21.9548C41.8693 21.0375 41.08 20.5788 40.056 20.5788C39.1173 20.5788 38.3707 21.0268 37.816 21.9228C37.2827 22.7975 37.016 24.0135 37.016 25.5708C37.016 27.2135 37.2507 28.4722 37.72 29.3468C38.2107 30.2215 38.968 30.6588 39.992 30.6588ZM52.984 33.4748C51.4693 33.4748 50.2213 32.9628 49.24 31.9388C48.2587 30.9148 47.768 29.2508 47.768 26.9468V18.2108H51.416V26.9468C51.416 28.2695 51.6293 29.2082 52.056 29.7628C52.504 30.2962 53.0587 30.5628 53.72 30.5628C54.616 30.5628 55.3413 30.2428 55.896 29.6028C56.472 28.9628 56.76 27.9922 56.76 26.6908V18.2108H60.376V30.7228C60.376 31.1922 60.3867 31.6188 60.408 32.0028C60.4507 32.3655 60.5467 32.7282 60.696 33.0908H57.4C57.2293 32.7708 57.1333 32.4508 57.112 32.1308C57.0907 31.8108 57.08 31.4908 57.08 31.1708C56.632 31.9388 56.0347 32.5148 55.288 32.8988C54.5627 33.2828 53.7947 33.4748 52.984 33.4748ZM67.96 28.0668C67.2133 28.0668 66.4987 27.9495 65.816 27.7148C65.624 27.8855 65.464 28.0455 65.336 28.1948C65.208 28.3228 65.144 28.5042 65.144 28.7388C65.144 29.1228 65.528 29.4108 66.296 29.6028C67.064 29.7948 68.376 29.8908 70.232 29.8908C71.512 29.8908 72.5147 30.0722 73.24 30.4348C73.9653 30.7975 74.488 31.2882 74.808 31.9068C75.128 32.5042 75.288 33.1548 75.288 33.8588C75.288 34.6908 75.032 35.4802 74.52 36.2268C74.0293 36.9948 73.2613 37.6135 72.216 38.0828C71.192 38.5735 69.8693 38.8188 68.248 38.8188C66.136 38.8188 64.4827 38.4562 63.288 37.7308C62.0933 37.0268 61.496 36.0775 61.496 34.8828C61.496 34.2428 61.6987 33.6455 62.104 33.0908C62.5307 32.5575 63.0533 32.1308 63.672 31.8108C63.2667 31.5548 62.9467 31.2562 62.712 30.9148C62.4987 30.5522 62.392 30.1362 62.392 29.6668C62.392 29.0482 62.5627 28.5042 62.904 28.0348C63.2453 27.5655 63.6613 27.1282 64.152 26.7228C63.6187 26.2748 63.192 25.7308 62.872 25.0908C62.5733 24.4295 62.424 23.7148 62.424 22.9468C62.424 21.9868 62.6587 21.1228 63.128 20.3548C63.6187 19.5655 64.28 18.9362 65.112 18.4668C65.944 17.9975 66.8933 17.7628 67.96 17.7628C68.6427 17.7628 69.2933 17.8695 69.912 18.0828C70.5307 18.2962 71.0747 18.5948 71.544 18.9788C72.12 18.5735 72.76 18.2642 73.464 18.0508C74.168 17.8375 74.9253 17.7628 75.736 17.8268L76.088 20.3228C75.5333 20.2162 74.9787 20.1948 74.424 20.2588C73.8907 20.3228 73.4 20.4722 72.952 20.7068C73.2933 21.4108 73.464 22.1575 73.464 22.9468C73.464 23.9282 73.2187 24.8028 72.728 25.5708C72.2587 26.3388 71.608 26.9468 70.776 27.3948C69.944 27.8428 69.0053 28.0668 67.96 28.0668ZM67.928 25.4428C68.6533 25.4428 69.2507 25.2082 69.72 24.7388C70.1893 24.2695 70.424 23.6722 70.424 22.9468C70.424 22.2428 70.1787 21.6668 69.688 21.2188C69.2187 20.7495 68.632 20.5148 67.928 20.5148C67.288 20.5148 66.712 20.7495 66.2 21.2188C65.7093 21.6882 65.464 22.2642 65.464 22.9468C65.464 23.6295 65.6987 24.2162 66.168 24.7068C66.6587 25.1975 67.2453 25.4428 67.928 25.4428ZM64.28 34.3388C64.28 34.9148 64.6747 35.3308 65.464 35.5868C66.2747 35.8642 67.2987 36.0028 68.536 36.0028C69.752 36.0028 70.68 35.8428 71.32 35.5228C71.9813 35.2028 72.312 34.7762 72.312 34.2428C72.312 33.7522 72.0987 33.4002 71.672 33.1868C71.2667 32.9948 70.456 32.8988 69.24 32.8988C68.5787 32.8988 67.928 32.8668 67.288 32.8028C66.648 32.7388 66.0507 32.6428 65.496 32.5148C65.1547 32.7708 64.8667 33.0375 64.632 33.3148C64.3973 33.5922 64.28 33.9335 64.28 34.3388ZM82.36 28.0668C81.6133 28.0668 80.8987 27.9495 80.216 27.7148C80.024 27.8855 79.864 28.0455 79.736 28.1948C79.608 28.3228 79.544 28.5042 79.544 28.7388C79.544 29.1228 79.928 29.4108 80.696 29.6028C81.464 29.7948 82.776 29.8908 84.632 29.8908C85.912 29.8908 86.9147 30.0722 87.64 30.4348C88.3653 30.7975 88.888 31.2882 89.208 31.9068C89.528 32.5042 89.688 33.1548 89.688 33.8588C89.688 34.6908 89.432 35.4802 88.92 36.2268C88.4293 36.9948 87.6613 37.6135 86.616 38.0828C85.592 38.5735 84.2693 38.8188 82.648 38.8188C80.536 38.8188 78.8827 38.4562 77.688 37.7308C76.4933 37.0268 75.896 36.0775 75.896 34.8828C75.896 34.2428 76.0987 33.6455 76.504 33.0908C76.9307 32.5575 77.4533 32.1308 78.072 31.8108C77.6667 31.5548 77.3467 31.2562 77.112 30.9148C76.8987 30.5522 76.792 30.1362 76.792 29.6668C76.792 29.0482 76.9627 28.5042 77.304 28.0348C77.6453 27.5655 78.0613 27.1282 78.552 26.7228C78.0187 26.2748 77.592 25.7308 77.272 25.0908C76.9733 24.4295 76.824 23.7148 76.824 22.9468C76.824 21.9868 77.0587 21.1228 77.528 20.3548C78.0187 19.5655 78.68 18.9362 79.512 18.4668C80.344 17.9975 81.2933 17.7628 82.36 17.7628C83.0427 17.7628 83.6933 17.8695 84.312 18.0828C84.9307 18.2962 85.4747 18.5948 85.944 18.9788C86.52 18.5735 87.16 18.2642 87.864 18.0508C88.568 17.8375 89.3253 17.7628 90.136 17.8268L90.488 20.3228C89.9333 20.2162 89.3787 20.1948 88.824 20.2588C88.2907 20.3228 87.8 20.4722 87.352 20.7068C87.6933 21.4108 87.864 22.1575 87.864 22.9468C87.864 23.9282 87.6187 24.8028 87.128 25.5708C86.6587 26.3388 86.008 26.9468 85.176 27.3948C84.344 27.8428 83.4053 28.0668 82.36 28.0668ZM82.328 25.4428C83.0533 25.4428 83.6507 25.2082 84.12 24.7388C84.5893 24.2695 84.824 23.6722 84.824 22.9468C84.824 22.2428 84.5787 21.6668 84.088 21.2188C83.6187 20.7495 83.032 20.5148 82.328 20.5148C81.688 20.5148 81.112 20.7495 80.6 21.2188C80.1093 21.6882 79.864 22.2642 79.864 22.9468C79.864 23.6295 80.0987 24.2162 80.568 24.7068C81.0587 25.1975 81.6453 25.4428 82.328 25.4428ZM78.68 34.3388C78.68 34.9148 79.0747 35.3308 79.864 35.5868C80.6747 35.8642 81.6987 36.0028 82.936 36.0028C84.152 36.0028 85.08 35.8428 85.72 35.5228C86.3813 35.2028 86.712 34.7762 86.712 34.2428C86.712 33.7522 86.4987 33.4002 86.072 33.1868C85.6667 32.9948 84.856 32.8988 83.64 32.8988C82.9787 32.8988 82.328 32.8668 81.688 32.8028C81.048 32.7388 80.4507 32.6428 79.896 32.5148C79.5547 32.7708 79.2667 33.0375 79.032 33.3148C78.7973 33.5922 78.68 33.9335 78.68 34.3388ZM98.072 33.4428C96.6427 33.4428 95.3627 33.1442 94.232 32.5468C93.1227 31.9495 92.248 31.0748 91.608 29.9228C90.968 28.7708 90.648 27.3842 90.648 25.7628C90.648 24.0988 90.9573 22.6802 91.576 21.5068C92.216 20.3335 93.0587 19.4375 94.104 18.8188C95.1707 18.1788 96.3547 17.8588 97.656 17.8588C98.808 17.8588 99.864 18.1255 100.824 18.6588C101.805 19.1922 102.584 20.0028 103.16 21.0908C103.757 22.1575 104.056 23.4908 104.056 25.0908C104.056 25.3042 104.045 25.5602 104.024 25.8588C104.024 26.1575 104.013 26.4135 103.992 26.6268H94.136C94.1787 27.5655 94.4027 28.3335 94.808 28.9308C95.2133 29.5068 95.7147 29.9335 96.312 30.2108C96.9093 30.4882 97.5493 30.6268 98.232 30.6268C98.8933 30.6268 99.5227 30.5202 100.12 30.3068C100.717 30.0935 101.272 29.7308 101.784 29.2188L103.64 31.0108C102.915 31.8642 102.083 32.4828 101.144 32.8668C100.205 33.2508 99.1813 33.4428 98.072 33.4428ZM94.2 23.9068H100.536C100.536 22.8615 100.269 22.0615 99.736 21.5068C99.2027 20.9522 98.456 20.6748 97.496 20.6748C96.664 20.6748 95.9387 20.9415 95.32 21.4748C94.7013 21.9868 94.328 22.7975 94.2 23.9068ZM106.648 18.2108H110.392L110.36 20.6108C110.765 19.7575 111.363 19.0855 112.152 18.5948C112.941 18.1042 113.773 17.8588 114.648 17.8588C116.312 17.8588 117.688 18.4242 118.776 19.5548L117.24 22.5948L117.144 22.8508L116.856 22.7228C116.792 22.5522 116.728 22.3815 116.664 22.2108C116.6 22.0188 116.44 21.8055 116.184 21.5708C115.885 21.3362 115.565 21.1548 115.224 21.0268C114.904 20.8988 114.552 20.8348 114.168 20.8348C113.144 20.8348 112.248 21.1868 111.48 21.8908C110.712 22.5948 110.328 23.7255 110.328 25.2828V33.0908H106.648V18.2108Z" fill="white"/>
</g>
<defs>
<filter id="filter0_d_654_5278" x="119" y="9.36328" width="27" height="20.2581" filterUnits="userSpaceOnUse" color-interpolation-filters="sRGB">
<feFlood flood-opacity="0" result="BackgroundImageFix"/>
<feColorMatrix in="SourceAlpha" type="matrix" values="0 0 0 0 0 0 0 0 0 0 0 0 0 0 0 0 0 0 127 0" result="hardAlpha"/>
<feOffset dy="4"/>
<feGaussianBlur stdDeviation="2"/>
<feComposite in2="hardAlpha" operator="out"/>
<feColorMatrix type="matrix" values="0 0 0 0 0 0 0 0 0 0 0 0 0 0 0 0 0 0 0.25 0"/>
<feBlend mode="normal" in2="BackgroundImageFix" result="effect1_dropShadow_654_5278"/>
<feBlend mode="normal" in="SourceGraphic" in2="effect1_dropShadow_654_5278" result="shape"/>
</filter>
<filter id="filter1_d_654_5278" x="0.0546875" y="11.6189" width="122.723" height="35.2" filterUnits="userSpaceOnUse" color-interpolation-filters="sRGB">
<feFlood flood-opacity="0" result="BackgroundImageFix"/>
<feColorMatrix in="SourceAlpha" type="matrix" values="0 0 0 0 0 0 0 0 0 0 0 0 0 0 0 0 0 0 127 0" result="hardAlpha"/>
<feOffset dy="4"/>
<feGaussianBlur stdDeviation="2"/>
<feComposite in2="hardAlpha" operator="out"/>
<feColorMatrix type="matrix" values="0 0 0 0 0 0 0 0 0 0 0 0 0 0 0 0 0 0 0.25 0"/>
<feBlend mode="normal" in2="BackgroundImageFix" result="effect1_dropShadow_654_5278"/>
<feBlend mode="normal" in="SourceGraphic" in2="effect1_dropShadow_654_5278" result="shape"/>
</filter>
</defs>
</svg>
